<?xml version="1.0" encoding="utf-8"?>
<!-- Generator: Adobe Illustrator 23.0.1, SVG Export Plug-In . SVG Version: 6.00 Build 0)  -->
<svg version="1.1" id="Layer_1" xmlns="http://www.w3.org/2000/svg" xmlns:xlink="http://www.w3.org/1999/xlink" x="0px" y="0px"
	 viewBox="0 0 73.4 63.9" style="enable-background:new 0 0 73.4 63.9;" xml:space="preserve">
<style type="text/css">
	.st0{fill:#114A7E;}
</style>
<title>Heart</title>
<g>
	<path class="st0" d="M54.2,6c7.3,0,13.2,5.9,13.2,13.2c0,3.5-1.4,6.9-3.9,9.3l-4,4l-4.2,4.2L36.6,55.4l0,0l0,0L18,36.8l0,0
		l-4.2-4.2l-4-4C4.6,23.4,4.6,15,9.8,9.9s13.5-5.1,18.6,0l4,4l4.2,4.2l4.2-4.2l4-4C47.3,7.4,50.7,6,54.2,6 M54.2,0
		c-5.1,0-10,2-13.6,5.6l-4,4l-4-4C25.1-1.8,13-1.7,5.5,5.8c-7.4,7.5-7.4,19.5,0,27l4,4l0,0l27.1,27.1l0,0l0,0l27.1-27.1l0,0l4-4
		c7.5-7.5,7.5-19.6,0-27.1C64.2,2,59.3,0,54.2,0L54.2,0z"/>
</g>
</svg>
