<?xml version="1.0" encoding="utf-8"?>
<!-- Generator: Adobe Illustrator 23.0.1, SVG Export Plug-In . SVG Version: 6.00 Build 0)  -->
<svg version="1.1"
	 id="Layer_1" xmlns:cc="http://creativecommons.org/ns#" xmlns:dc="http://purl.org/dc/elements/1.1/" xmlns:inkscape="http://www.inkscape.org/namespaces/inkscape" xmlns:rdf="http://www.w3.org/1999/02/22-rdf-syntax-ns#" xmlns:sodipodi="http://sodipodi.sourceforge.net/DTD/sodipodi-0.dtd" xmlns:svg="http://www.w3.org/2000/svg"
	 xmlns="http://www.w3.org/2000/svg" xmlns:xlink="http://www.w3.org/1999/xlink" x="0px" y="0px" viewBox="0 0 58.4 72.7"
	 style="enable-background:new 0 0 58.4 72.7;" xml:space="preserve">
<style type="text/css">
	.st0{fill-rule:evenodd;clip-rule:evenodd;fill:#114A7E;}
</style>
<g transform="translate(0,-952.36218)">
	<path class="st0" d="M29.4,953.5c-2.7,0-5.1,2.1-5.1,4.7v3.7c-8.2,2.3-14.3,9.9-14.3,18.9c0,5.3,0.4,12.2-0.4,18.5
		c-0.8,6.3-2.8,11.9-7.6,15c-0.5,0.3-0.6,0.9-0.3,1.4c0.2,0.3,0.5,0.4,0.8,0.4h18c0.4,4.3,4.2,7.6,8.8,7.6s8.4-3.4,8.8-7.6h18
		c0.6,0,1-0.4,1-1c0-0.3-0.2-0.6-0.4-0.8c-4.6-3-6.7-8.7-7.5-15c-0.8-6.3-0.5-13.2-0.5-18.5c0-9-6.1-16.7-14.3-18.9v-3.7
		C34.5,955.6,32.1,953.5,29.4,953.5z M29.4,955.5c1.8,0,3.1,1.3,3.1,2.7v3.3c-1-0.2-2-0.3-3.1-0.3c-1.1,0-2.1,0.1-3.1,0.3v-3.3
		C26.3,956.8,27.6,955.5,29.4,955.5z M29.4,963.2c9.6,0,17.4,7.9,17.4,17.6c0,5.2-0.4,12.1,0.5,18.7c0.7,5.6,2.4,10.9,6.1,14.6H5.4
		c3.8-3.7,5.4-9,6.2-14.5c0.9-6.6,0.4-13.5,0.4-18.7C12,971.1,19.8,963.2,29.4,963.2z M22.6,1016.1h13.6c-0.4,3.2-3.2,5.6-6.8,5.6
		S23,1019.3,22.6,1016.1z"/>
</g>
</svg>
